<?xml version="1.0" encoding="utf-8"?>
<!-- Generator: Adobe Illustrator 16.0.0, SVG Export Plug-In . SVG Version: 6.00 Build 0)  -->
<!DOCTYPE svg PUBLIC "-//W3C//DTD SVG 1.1//EN" "http://www.w3.org/Graphics/SVG/1.1/DTD/svg11.dtd">
<svg version="1.1" id="Layer_1" xmlns="http://www.w3.org/2000/svg" xmlns:xlink="http://www.w3.org/1999/xlink" x="0px" y="0px"
	 width="74.816px" height="74.816px" viewBox="0 0 74.816 74.816" enable-background="new 0 0 74.816 74.816" xml:space="preserve">
<path fill="#FFFFFF" d="M37.409,0C16.75,0,0.001,16.748,0.001,37.408S16.75,74.816,37.409,74.816
	c20.66,0,37.408-16.748,37.408-37.408S58.069,0,37.409,0z M22.382,63.102C13.678,57.415,7.98,48.056,7.936,37.451
	c-0.038-9.172,4.162-17.448,10.899-23.243l7.267,6.659c-0.341,0.284-0.674,0.577-0.998,0.877c-1.082,1.008-2.062,2.114-2.914,3.292
	c-0.859,1.185-1.596,2.45-2.189,3.761c-1.234,2.726-1.853,5.622-1.841,8.611c0.013,2.99,0.656,5.882,1.912,8.596
	c0.604,1.306,1.351,2.565,2.22,3.744c0.08,0.106,0.16,0.214,0.241,0.32l-0.039-9.511L33.2,30.582l0.113,27.313l0.042,9.938
	C29.365,66.864,25.661,65.244,22.382,63.102z M52.507,62.977c-3.285,2.187-7.009,3.846-11.026,4.847l-0.042-9.929
	c0.033-0.012,0.064-0.021,0.096-0.034l-0.114-27.312l10.788,9.886l0.04,9.51c0.08-0.105,0.16-0.214,0.237-0.321
	c0.86-1.186,1.597-2.45,2.19-3.762c1.233-2.725,1.853-5.622,1.84-8.611c-0.013-2.99-0.656-5.882-1.912-8.597
	c-0.605-1.305-1.352-2.565-2.22-3.742c-0.862-1.17-1.854-2.269-2.942-3.268c-0.325-0.298-0.66-0.588-1.005-0.87l7.212-6.718
	c6.785,5.738,11.054,13.979,11.092,23.152C66.786,47.811,61.165,57.218,52.507,62.977z"/>
<path fill="#DB1F26" d="M37.408,0C16.748,0,0,16.748,0,37.408s16.748,37.408,37.408,37.408s37.408-16.748,37.408-37.408
	S58.068,0,37.408,0z M22.381,63.102C13.677,57.415,7.979,48.056,7.935,37.452c-0.038-9.172,4.162-17.448,10.899-23.243l7.267,6.659
	c-0.341,0.284-0.674,0.577-0.998,0.877c-1.082,1.008-2.062,2.114-2.914,3.292c-0.859,1.185-1.596,2.45-2.189,3.761
	c-1.234,2.727-1.853,5.622-1.841,8.611c0.013,2.99,0.656,5.882,1.912,8.596c0.604,1.306,1.351,2.565,2.22,3.744
	c0.08,0.105,0.16,0.214,0.241,0.32l-0.039-9.512l10.705-9.976l0.113,27.313l0.042,9.938C29.364,66.864,25.66,65.244,22.381,63.102z
	 M52.506,62.977c-3.285,2.188-7.009,3.847-11.026,4.848l-0.042-9.93c0.033-0.012,0.064-0.021,0.096-0.033L41.42,30.549l10.788,9.886
	l0.04,9.511c0.08-0.105,0.16-0.214,0.237-0.321c0.86-1.187,1.597-2.45,2.19-3.762c1.233-2.726,1.853-5.622,1.84-8.611
	c-0.013-2.99-0.656-5.882-1.912-8.597c-0.605-1.306-1.352-2.565-2.22-3.742c-0.862-1.17-1.854-2.27-2.942-3.269
	c-0.325-0.298-0.66-0.588-1.005-0.869l7.212-6.719c6.785,5.738,11.054,13.979,11.092,23.152
	C66.785,47.811,61.163,57.218,52.506,62.977z"/>
</svg>
