<svg version="1.1" baseProfile="tiny" id="Layer_1" xmlns="http://www.w3.org/2000/svg" xmlns:xlink="http://www.w3.org/1999/xlink"
	 x="0px" y="0px" width="240.388px" height="52px" viewBox="0 0 240.388 52" overflow="visible" xml:space="preserve">
<g>
	<g>
		<polygon fill="#EA5600" points="25.896,0 0,25.787 18.161,43.866 20.11,32.806 13.089,25.787 23.116,15.764 		"/>
		<polygon fill="#EA5600" points="33.537,7.4 31.584,18.462 38.912,25.787 28.442,36.252 25.669,52 52,25.787 		"/>
	</g>
	<g>
		<path fill="#EA5600" d="M78.098,26.187h1.725v6.487c-0.794,0.696-1.734,1.23-2.818,1.604c-1.085,0.372-2.228,0.56-3.426,0.56
			c-1.702,0-3.232-0.373-4.592-1.118c-1.361-0.744-2.429-1.777-3.207-3.098c-0.778-1.32-1.167-2.798-1.167-4.435
			c0-1.635,0.389-3.112,1.167-4.434c0.777-1.319,1.846-2.352,3.207-3.097c1.36-0.745,2.899-1.118,4.616-1.118
			c1.296,0,2.487,0.206,3.572,0.62c1.085,0.413,2,1.024,2.745,1.834l-1.118,1.142c-1.344-1.327-3.053-1.992-5.126-1.992
			c-1.376,0-2.62,0.303-3.729,0.911c-1.11,0.608-1.98,1.45-2.612,2.527c-0.631,1.077-0.947,2.279-0.947,3.607
			c0,1.329,0.316,2.526,0.947,3.597c0.632,1.069,1.498,1.911,2.6,2.526c1.101,0.615,2.34,0.923,3.717,0.923
			c1.749,0,3.231-0.437,4.446-1.312V26.187z"/>
		<path fill="#EA5600" d="M88.423,32.941c-1.231-1.264-1.847-3.103-1.847-5.516v-9.742h1.798v9.669c0,1.978,0.445,3.451,1.336,4.424
			c0.891,0.971,2.178,1.456,3.863,1.456c1.701,0,2.996-0.485,3.887-1.456c0.891-0.973,1.336-2.446,1.336-4.424v-9.669h1.75v9.742
			c0,2.413-0.612,4.252-1.835,5.516c-1.223,1.264-2.936,1.896-5.138,1.896C91.371,34.837,89.654,34.205,88.423,32.941z"/>
		<path fill="#EA5600" d="M113.374,28.812v5.879h-1.772v-5.879l-6.803-11.128h1.918l5.832,9.549l5.831-9.549h1.798L113.374,28.812z"
			/>
		<path fill="#EA5600" d="M132.98,17.684h6.925c1.798,0,3.384,0.361,4.761,1.082c1.378,0.721,2.447,1.726,3.208,3.013
			c0.761,1.287,1.142,2.757,1.142,4.409c0,1.652-0.381,3.122-1.142,4.41s-1.83,2.292-3.208,3.014c-1.377,0.72-2.963,1.08-4.761,1.08
			h-6.925V17.684z M139.807,33.136c1.49,0,2.794-0.296,3.912-0.887c1.117-0.592,1.983-1.409,2.599-2.454s0.925-2.247,0.925-3.608
			c0-1.36-0.31-2.563-0.925-3.607c-0.615-1.045-1.481-1.862-2.599-2.453c-1.118-0.591-2.422-0.887-3.912-0.887h-5.029v13.896
			H139.807z"/>
		<path fill="#EA5600" d="M156.57,32.941c-1.23-1.264-1.846-3.103-1.846-5.516v-9.742h1.798v9.669c0,1.978,0.444,3.451,1.336,4.424
			c0.891,0.971,2.179,1.456,3.864,1.456c1.7,0,2.996-0.485,3.887-1.456c0.892-0.973,1.335-2.446,1.335-4.424v-9.669h1.75v9.742
			c0,2.413-0.611,4.252-1.834,5.516c-1.224,1.264-2.937,1.896-5.138,1.896C159.518,34.837,157.801,34.205,156.57,32.941z"/>
		<path fill="#EA5600" d="M193.596,17.684V34.69h-1.725V21.085l-6.682,11.442h-0.85l-6.682-11.369V34.69h-1.725V17.684h1.482
			l7.386,12.609l7.313-12.609H193.596z"/>
		<path fill="#EA5600" d="M211.623,30.147h-9.473l-2.042,4.543h-1.871l7.774-17.007h1.773l7.775,17.007h-1.896L211.623,30.147z
			 M210.967,28.689l-4.081-9.135l-4.081,9.135H210.967z"/>
		<path fill="#EA5600" d="M220.199,17.684h1.798V34.69h-1.798V17.684z"/>
		<path fill="#EA5600" d="M230.416,34.229c-1.159-0.405-2.053-0.94-2.685-1.604l0.704-1.385c0.616,0.616,1.434,1.115,2.454,1.494
			c1.021,0.381,2.074,0.571,3.158,0.571c1.522,0,2.664-0.279,3.426-0.838s1.142-1.284,1.142-2.175c0-0.68-0.206-1.222-0.619-1.628
			c-0.413-0.404-0.921-0.717-1.519-0.935c-0.6-0.219-1.435-0.458-2.503-0.717c-1.279-0.324-2.3-0.635-3.061-0.937
			c-0.762-0.298-1.413-0.757-1.956-1.371c-0.542-0.615-0.813-1.45-0.813-2.503c0-0.858,0.227-1.64,0.681-2.344
			c0.452-0.705,1.148-1.267,2.089-1.689c0.939-0.421,2.105-0.632,3.499-0.632c0.971,0,1.922,0.133,2.854,0.401
			c0.93,0.267,1.737,0.636,2.418,1.105l-0.608,1.434c-0.714-0.47-1.475-0.823-2.283-1.058c-0.811-0.235-1.604-0.353-2.381-0.353
			c-1.491,0-2.612,0.288-3.366,0.863c-0.753,0.575-1.13,1.315-1.13,2.223c0,0.681,0.208,1.228,0.619,1.64
			c0.414,0.413,0.933,0.729,1.557,0.948c0.622,0.219,1.46,0.458,2.514,0.716c1.247,0.309,2.255,0.611,3.024,0.912
			c0.769,0.3,1.422,0.753,1.956,1.36c0.534,0.606,0.802,1.43,0.802,2.466c0,0.858-0.231,1.64-0.692,2.345
			c-0.461,0.704-1.17,1.263-2.126,1.676c-0.955,0.413-2.13,0.62-3.522,0.62C232.784,34.837,231.573,34.634,230.416,34.229z"/>
	</g>
</g>
</svg>