<?xml version="1.0" encoding="utf-8"?>
<!-- Generator: Adobe Illustrator 16.0.0, SVG Export Plug-In . SVG Version: 6.00 Build 0)  -->
<!DOCTYPE svg PUBLIC "-//W3C//DTD SVG 1.1//EN" "http://www.w3.org/Graphics/SVG/1.1/DTD/svg11.dtd">
<svg version="1.1" id="Layer_1" xmlns="http://www.w3.org/2000/svg" xmlns:xlink="http://www.w3.org/1999/xlink" x="0px" y="0px"
	 width="268.786px" height="52.152px" viewBox="0 0 268.786 52.152" enable-background="new 0 0 268.786 52.152"
	 xml:space="preserve">
<g>
	<path fill="#FFFFFF" d="M81.791,26.619h1.952v7.341c-0.898,0.787-1.961,1.393-3.189,1.814c-1.228,0.422-2.52,0.632-3.876,0.632
		c-1.924,0-3.656-0.421-5.196-1.265c-1.54-0.843-2.749-2.012-3.629-3.506c-0.879-1.493-1.319-3.165-1.319-5.017
		c0-1.851,0.44-3.523,1.319-5.017c0.88-1.494,2.089-2.662,3.629-3.505c1.54-0.843,3.281-1.265,5.224-1.265
		c1.466,0,2.813,0.234,4.041,0.701c1.228,0.467,2.264,1.159,3.106,2.076l-1.264,1.292c-1.521-1.502-3.455-2.254-5.801-2.254
		c-1.558,0-2.965,0.344-4.22,1.031c-1.255,0.687-2.24,1.64-2.955,2.859c-0.715,1.219-1.072,2.58-1.072,4.083
		c0,1.503,0.357,2.859,1.072,4.069c0.715,1.209,1.695,2.162,2.941,2.858c1.246,0.696,2.648,1.045,4.206,1.045
		c1.979,0,3.657-0.495,5.031-1.485V26.619z"/>
	<path fill="#FFFFFF" d="M93.475,34.262c-1.393-1.43-2.089-3.509-2.089-6.241V16.997h2.034v10.941c0,2.236,0.504,3.904,1.512,5.004
		c1.008,1.1,2.465,1.649,4.371,1.649c1.924,0,3.391-0.55,4.398-1.649s1.512-2.768,1.512-5.004V16.997h1.979v11.023
		c0,2.732-0.692,4.812-2.076,6.241c-1.384,1.43-3.322,2.145-5.814,2.145C96.81,36.406,94.867,35.691,93.475,34.262z"/>
	<path fill="#FFFFFF" d="M121.708,29.589v6.652h-2.007v-6.652l-7.698-12.592h2.172l6.598,10.805l6.598-10.805h2.034L121.708,29.589z
		"/>
	<path fill="#FFFFFF" d="M143.895,16.997h7.834c2.035,0,3.83,0.408,5.389,1.224c1.558,0.815,2.768,1.952,3.629,3.409
		s1.292,3.12,1.292,4.99c0,1.87-0.431,3.532-1.292,4.989s-2.071,2.594-3.629,3.41c-1.559,0.814-3.354,1.223-5.389,1.223h-7.834
		V16.997z M151.619,34.481c1.686,0,3.161-0.334,4.426-1.003s2.245-1.595,2.941-2.776c0.697-1.183,1.045-2.543,1.045-4.083
		c0-1.54-0.348-2.9-1.045-4.083c-0.696-1.182-1.677-2.107-2.941-2.776s-2.74-1.004-4.426-1.004h-5.691v15.725H151.619z"/>
	<path fill="#FFFFFF" d="M170.588,34.262c-1.393-1.43-2.09-3.509-2.09-6.241V16.997h2.035v10.941c0,2.236,0.504,3.904,1.512,5.004
		s2.465,1.649,4.371,1.649c1.924,0,3.391-0.55,4.398-1.649s1.512-2.768,1.512-5.004V16.997h1.98v11.023
		c0,2.732-0.693,4.812-2.076,6.241c-1.385,1.43-3.322,2.145-5.814,2.145S171.98,35.691,170.588,34.262z"/>
	<path fill="#FFFFFF" d="M212.484,16.997v19.244h-1.951V20.846l-7.561,12.948h-0.963l-7.56-12.866v15.313h-1.952V16.997h1.678
		l8.357,14.268l8.274-14.268H212.484z"/>
	<path fill="#FFFFFF" d="M232.883,31.101h-10.722l-2.31,5.141h-2.116l8.797-19.244h2.007l8.797,19.244h-2.144L232.883,31.101z
		 M232.141,29.45l-4.619-10.336l-4.617,10.336H232.141z"/>
	<path fill="#FFFFFF" d="M242.588,16.997h2.033v19.244h-2.033V16.997z"/>
	<path fill="#FFFFFF" d="M254.147,35.719c-1.311-0.458-2.323-1.063-3.038-1.814l0.797-1.567c0.697,0.697,1.623,1.261,2.777,1.691
		s2.346,0.646,3.574,0.646c1.723,0,3.014-0.316,3.876-0.949c0.86-0.633,1.292-1.452,1.292-2.461c0-0.77-0.234-1.383-0.701-1.842
		c-0.467-0.457-1.041-0.811-1.719-1.059c-0.678-0.246-1.621-0.518-2.831-0.811c-1.448-0.366-2.603-0.719-3.464-1.058
		c-0.861-0.339-1.6-0.856-2.213-1.553c-0.615-0.696-0.922-1.64-0.922-2.832c0-0.971,0.258-1.855,0.771-2.653
		s1.302-1.434,2.364-1.911c1.063-0.476,2.383-0.715,3.959-0.715c1.1,0,2.176,0.151,3.23,0.454c1.053,0.303,1.965,0.72,2.734,1.251
		l-0.687,1.622c-0.808-0.531-1.668-0.93-2.585-1.196c-0.916-0.266-1.814-0.399-2.693-0.399c-1.687,0-2.955,0.326-3.808,0.976
		c-0.853,0.651-1.278,1.489-1.278,2.516c0,0.77,0.233,1.388,0.701,1.855c0.467,0.467,1.053,0.825,1.76,1.072
		c0.705,0.248,1.653,0.518,2.845,0.811c1.411,0.348,2.552,0.692,3.423,1.031c0.87,0.34,1.607,0.853,2.213,1.539
		c0.605,0.688,0.907,1.618,0.907,2.791c0,0.972-0.261,1.855-0.784,2.652c-0.521,0.798-1.324,1.43-2.404,1.897
		c-1.082,0.468-2.41,0.701-3.986,0.701C256.828,36.406,255.457,36.177,254.147,35.719z"/>
</g>
<polygon fill="#FFFFFF" points="23.801,19.189 27.256,3.225 4.894,17.686 0,35.371 16.665,52.152 20.474,34.558 11.916,26.529 "/>
<polygon fill="#FFFFFF" points="34.034,0 30.21,17.662 39.659,26.529 26.536,34.635 23.055,50.712 47.259,35.371 52.152,17.686 "/>
</svg>
