<svg version="1.1" id="Layer_1" xmlns="http://www.w3.org/2000/svg" xmlns:xlink="http://www.w3.org/1999/xlink" x="0px" y="0px"
	 width="400.644px" height="86.666px" viewBox="0 0 400.644 86.666" enable-background="new 0 0 400.644 86.666"
	 xml:space="preserve">
<g>
	<polygon fill="#FFFFFF" points="43.158,0 0,42.979 30.267,73.109 33.517,54.676 21.814,42.979 38.525,26.273 	"/>
	<polygon fill="#FFFFFF" points="55.895,12.334 52.639,30.771 64.852,42.979 47.402,60.421 42.781,86.666 86.666,42.979 	"/>
</g>
<g>
	<path fill="#FFFFFF" d="M130.162,43.645h2.875v10.813c-1.324,1.16-2.89,2.051-4.697,2.672c-1.809,0.621-3.713,0.932-5.71,0.932
		c-2.835,0-5.386-0.621-7.653-1.863c-2.268-1.24-4.049-2.962-5.344-5.162c-1.297-2.2-1.944-4.663-1.944-7.391
		c0-2.726,0.647-5.188,1.944-7.389c1.295-2.2,3.076-3.921,5.344-5.163c2.268-1.241,4.832-1.862,7.693-1.862
		c2.16,0,4.145,0.344,5.953,1.032s3.334,1.708,4.575,3.058l-1.862,1.902c-2.241-2.213-5.089-3.32-8.544-3.32
		c-2.295,0-4.366,0.506-6.216,1.519s-3.3,2.417-4.353,4.212s-1.579,3.799-1.579,6.012c0,2.215,0.526,4.212,1.579,5.994
		c1.053,1.781,2.497,3.186,4.333,4.211c1.835,1.025,3.9,1.538,6.195,1.538c2.915,0,5.385-0.729,7.41-2.187V43.645z"/>
	<path fill="#FFFFFF" d="M147.371,54.902c-2.053-2.105-3.078-5.17-3.078-9.191V29.473h2.996v16.116c0,3.294,0.742,5.75,2.228,7.37
		c1.484,1.619,3.63,2.429,6.438,2.429c2.834,0,4.993-0.81,6.479-2.429c1.484-1.62,2.227-4.076,2.227-7.37V29.473h2.916v16.238
		c0,4.021-1.02,7.086-3.058,9.191s-4.894,3.158-8.563,3.158C152.283,58.061,149.422,57.008,147.371,54.902z"/>
	<path fill="#FFFFFF" d="M188.955,48.019v9.799H186v-9.799l-11.338-18.546h3.198l9.718,15.914l9.719-15.914h2.996L188.955,48.019z"
		/>
	<path fill="#FFFFFF" d="M221.632,29.473h11.54c2.996,0,5.642,0.602,7.937,1.803c2.294,1.201,4.075,2.875,5.345,5.021
		c1.269,2.146,1.903,4.596,1.903,7.349c0,2.754-0.635,5.204-1.903,7.35c-1.27,2.146-3.051,3.82-5.345,5.021
		c-2.295,1.201-4.94,1.802-7.937,1.802h-11.54V29.473z M233.01,55.227c2.483,0,4.656-0.492,6.52-1.479
		c1.862-0.985,3.307-2.349,4.332-4.09s1.539-3.746,1.539-6.014c0-2.267-0.514-4.271-1.539-6.012c-1.025-1.742-2.47-3.104-4.332-4.09
		c-1.863-0.985-4.036-1.479-6.52-1.479h-8.382v23.162H233.01z"/>
	<path fill="#FFFFFF" d="M260.948,54.902c-2.052-2.105-3.077-5.17-3.077-9.191V29.473h2.996v16.116c0,3.294,0.742,5.75,2.228,7.37
		c1.484,1.619,3.63,2.429,6.438,2.429c2.834,0,4.993-0.81,6.479-2.429c1.484-1.62,2.227-4.076,2.227-7.37V29.473h2.916v16.238
		c0,4.021-1.02,7.086-3.058,9.191s-4.893,3.158-8.563,3.158C265.861,58.061,263,57.008,260.948,54.902z"/>
	<path fill="#FFFFFF" d="M322.658,29.473v28.345h-2.875V35.143l-11.136,19.07h-1.417l-11.135-18.949v22.554h-2.875V29.473h2.47
		L308,50.488l12.188-21.016H322.658z"/>
	<path fill="#FFFFFF" d="M352.702,50.246h-15.791l-3.401,7.571h-3.118l12.957-28.345h2.956l12.957,28.345h-3.158L352.702,50.246z
		 M351.609,47.816l-6.803-15.226l-6.803,15.226H351.609z"/>
	<path fill="#FFFFFF" d="M366.996,29.473h2.996v28.345h-2.996V29.473z"/>
	<path fill="#FFFFFF" d="M384.022,57.048c-1.931-0.675-3.422-1.565-4.475-2.673l1.174-2.308c1.025,1.026,2.39,1.856,4.09,2.49
		c1.701,0.635,3.455,0.952,5.264,0.952c2.537,0,4.44-0.467,5.71-1.397c1.269-0.931,1.902-2.14,1.902-3.624
		c0-1.134-0.344-2.037-1.032-2.713c-0.688-0.674-1.532-1.194-2.53-1.559c-0.999-0.365-2.39-0.763-4.171-1.195
		c-2.133-0.539-3.834-1.059-5.102-1.559c-1.27-0.499-2.355-1.262-3.26-2.287c-0.905-1.025-1.356-2.416-1.356-4.172
		c0-1.43,0.377-2.732,1.134-3.906c0.755-1.175,1.916-2.112,3.482-2.814c1.564-0.701,3.509-1.053,5.83-1.053
		c1.62,0,3.205,0.223,4.758,0.668c1.552,0.445,2.896,1.06,4.029,1.842l-1.013,2.39c-1.188-0.782-2.456-1.37-3.806-1.762
		c-1.351-0.391-2.673-0.587-3.969-0.587c-2.483,0-4.353,0.479-5.607,1.438c-1.256,0.959-1.883,2.193-1.883,3.705
		c0,1.134,0.344,2.045,1.032,2.732c0.688,0.689,1.552,1.215,2.592,1.58c1.038,0.364,2.436,0.763,4.19,1.194
		c2.078,0.513,3.759,1.019,5.041,1.519s2.369,1.255,3.26,2.268c0.891,1.012,1.336,2.383,1.336,4.109
		c0,1.432-0.385,2.733-1.153,3.908c-0.77,1.174-1.951,2.105-3.543,2.793c-1.594,0.689-3.551,1.033-5.872,1.033
		C387.97,58.061,385.952,57.723,384.022,57.048z"/>
</g>
</svg>